# xmcd CD database file
#
# Track frame offsets:
#	150
#	10707
#	19300
#	53592
#	56392
#	65397
#	66652
#	73152
#	91570
#	113020
#	125557
#	138627
#	146067
#	160820
#	178755
#	201067
#	216037
#	223885
#	243307
#
# Disc length: 3274 seconds
#
# Revision: 0
# Processed by: cddbd v1.5.2PL0 Copyright (c) Steve Scherf et al.
# Submitted via: CDex 1.50beta10
#
DISCID=1d0cc813
DTITLE=Marian McPartland - Piano Jazz with Mercer Ellington
DYEAR=1994
DGENRE=Jazz
TTITLE0=Conversation
TTITLE1=C Jam Blues (Duet w Edward Kennedy Ellington)
TTITLE2=Conversation
TTITLE3=Kinda Dukish
TTITLE4=Conversation
TTITLE5=Caravan
TTITLE6=Conversation
TTITLE7=Prelude to a Kiss
TTITLE8=Conversation
TTITLE9=Chelsea Bridge
TTITLE10=Conversation
TTITLE11=Moon Mist
TTITLE12=Conversation
TTITLE13=Things Ain't What They Used to Be
TTITLE14=Conversation
TTITLE15=Portrait of Mercer Ellington
TTITLE16=Conversation
TTITLE17=Solitude
TTITLE18=Conversation
EXTD=YEAR: 1994
EXTT0=
EXTT1=
EXTT2=
EXTT3=
EXTT4=
EXTT5=
EXTT6=
EXTT7=
EXTT8=
EXTT9=
EXTT10=
EXTT11=
EXTT12=
EXTT13=
EXTT14=
EXTT15=
EXTT16=
EXTT17=
EXTT18=
PLAYORDER=
